General

Format                           : MPEG-4
Format profile                   : Base Media
Codec ID                         : isom
File size                        : 101 MiB
Duration                         : 3mn 19s
Overall bit rate                 : 4 255 Kbps
Encoded date                     : UTC 2012-03-03 15:15:42
Tagged date                      : UTC 2012-03-03 15:15:42

Video
ID                               : 1
Format                           : AVC
Format/Info                      : Advanced Video Codec
Format profile                   : High@L3.0
Format settings, CABAC           : Yes
Format settings, ReFrames        : 2 frames
Codec ID                         : avc1
Codec ID/Info                    : Advanced Video Coding
Duration                         : 3mn 18s
Bit rate mode                    : Variable
Bit rate                         : 4 204 Kbps
Maximum bit rate                 : 12.2 Mbps
Width                            : 720 pixels
Height                           : 576 pixels
Display aspect ratio             : 4:3
Original display aspect ratio    : 4:3
Frame rate mode                  : Constant
Frame rate                       : 25.000 fps
Standard                         : PAL
Color space                      : YUV
Chroma subsampling               : 4:2:0
Bit depth                        : 8 bits
Scan type                        : Progressive
Bits/(Pixel*Frame)               : 0.405
Stream size                      : 99.2 MiB (98%)


Audio
ID                               : 2
Format                           : AAC
Format/Info                      : Advanced Audio Codec
Format profile                   : LC
Codec ID                         : 40
Duration                         : 3mn 19s
Bit rate mode                    : Variable
Bit rate                         : 70.2 Kbps
Maximum bit rate                 : 83.3 Kbps
Channel(s)                       : 2 channels
Channel positions                : Front: L R
Sampling rate                    : 48.0 KHz
Compression mode                 : Lossy
Stream size                      : 1.67 MiB (2%)

